<?xml version="1.0" encoding="UTF-8"?>
<svg width="450px" height="199px" viewBox="0 0 450 199" version="1.1" xmlns="http://www.w3.org/2000/svg" xmlns:xlink="http://www.w3.org/1999/xlink">
    <!-- Generator: Sketch 51.2 (57519) - http://www.bohemiancoding.com/sketch -->
    <title>Logo-light</title>
    <desc>Created with Sketch.</desc>
    <defs></defs>
    <g id="Logo-light" stroke="none" stroke-width="1" fill="none" fill-rule="evenodd">
        <g id="logo-sb" transform="translate(30.000000, 76.000000)">
            <polygon id="Shape" fill="#FFFFFF" fill-rule="nonzero" points="66.3 47.2 76.3 0 10 0 0 47.2"></polygon>
            <path d="M49.3,9.9 C57,11.7 57.2,13.6 57.2,13.6 C62.2,13.6 63.5,13.6 64.4,14.5 C67.3,17.2 62.4,23.8 62.4,23.8 C61.8,24.2 6.6,45.8 6.6,45.8 L64.7,45.8 L74,1.9 L11.6,1.9 C11.6,1.9 48.4,9.7 49.3,9.9" id="Shape" fill="#333366" fill-rule="nonzero"></path>
            <path d="M55,16.3 C54.2,16.7 51.8,17.1 51,17.2 C50.2,17.3 49.8,17.3 49.8,17.5 C49.8,17.8 50.9,17.7 51.3,17.7 C53.1,17.7 60.2,17.2 61.9,17.5 C63.2,17.7 61.7,20.3 61.3,21.9 C61.2,22.5 61.6,22.2 61.8,21.9 C62.3,21.1 63.7,18.5 63.8,17.5 C64,15.5 62.6,15.2 60.2,15.2 L56.5,15.2 C56.2,15.2 56.1,15.3 56,15.5 C55.7,15.8 55.2,16.1 55,16.3" id="Shape" fill="#333366" fill-rule="nonzero"></path>
            <path d="M32,31.1 L2.3,45.8 L9.5,12.1 L39.5,12.1 C40,12.1 55.6,12.1 55.9,15.2 L28.9,15.2 L33.1,28 C37.9,25.7 49.7,20.9 56.8,20.6 C59.8,20.5 61,21 60.4,21.4 C60,21.6 57.1,22 54.8,22.6 C50.8,23.6 50.6,23.6 46.4,25 C41.7,26.6 37.8,28.4 32,31.1" id="Shape" fill="#333366" fill-rule="nonzero"></path>
            <path d="M94.2,46.8 C82.6,46.8 75.7,42.2 78,31.9 C81.8,14.1 84.3,2.2 84.3,2.2 L94,2.2 C94,2.2 88.1,29.6 88.3,29 C86.8,35.8 88.3,39.9 95.7,39.9 C102.8,39.9 106.4,35.8 107.9,29 C108.8,25.1 113.6,2.2 113.6,2.2 L123.3,2.2 C116.8,31.9 123.3,2.2 116.9,31.9 C114.5,42.1 105.7,46.8 94.2,46.8" id="Shape" fill="#333366" fill-rule="nonzero"></path>
            <path d="M175.1,29.3 C173.6,29.3 170.4,29.1 168.8,28.8 L170,22.5 C171.2,22.6 172.8,22.8 174.3,22.8 C180.9,22.8 183.3,18.3 183.8,15.6 C184.8,10.8 182.4,9.1 178.9,9.1 L171,9.1 L163.2,46 L153.5,46 L162.8,2.2 L183.8,2.2 C193.3,2.2 194.4,10.5 193.2,16 C191.4,24.2 183.7,29.3 175.1,29.3" id="Shape" fill="#333366" fill-rule="nonzero"></path>
            <path d="M154.6,9.2 L144.3,9.2 C139,9.2 136.7,10.3 136.2,12.4 C134.7,19.4 153.6,24.9 151.8,35.7 C150.8,41.7 145.6,46 133.5,46 L118.7,46 L120.2,39 L132,39 C135.7,39 140.2,39.2 141,35.5 C142.4,29.2 123.8,23 125.2,12.5 C126.1,6.2 131.7,2.2 143,2.2 L156,2.2 L154.6,9.2 Z" id="Shape" fill="#333366" fill-rule="nonzero"></path>
            <path d="M226.7,9.2 L216.4,9.2 C211.1,9.2 208.8,10.3 208.3,12.4 C206.8,19.4 225.7,24.9 223.9,35.7 C222.9,41.7 217.7,46 205.6,46 L190.8,46 L192.3,39 L204.2,39 C207.9,39 212.4,39.2 213.2,35.5 C214.6,29.2 196,23 197.4,12.5 C198.3,6.2 203.9,2.2 215.2,2.2 L228.2,2.2 L226.7,9.2 Z" id="Shape" fill="#333366" fill-rule="nonzero"></path>
            <path d="M230,38.2 C227.9,38.2 226.1,39.9 226.1,42.1 C226.1,44.2 227.8,46 230,46 C232.1,46 233.9,44.3 233.9,42.1 C233.9,39.9 232.1,38.2 230,38.2" id="Shape" fill="#333366" fill-rule="nonzero"></path>
            <polygon id="Shape" fill="#333366" points="375.2 2 365.7 45.9 357.6 45.9 364.8 13.3 345.5 45.9 337.2 45.9 332.6 15.4 325.9 45.9 317.9 45.9 327.2 2 338.8 2 343.7 34.3 362.5 2"></polygon>
            <path d="M255.6,46.8 C249.8,46.8 244.6,45.5 240.8,42.7 C237,39.9 234.7,35.5 234.7,29.6 C234.7,27.8 234.9,25.9 235.4,23.8 C238.6,8.1 251.7,1.1 265,1.1 C268.2,1.1 271.7,1.5 274.8,2.1 L275.5,2.2 L273.9,9.3 L273.3,9.2 C271.1,9 269.6,8.8 267.6,8.8 C265.8,8.8 264.1,8.9 262.2,9.1 C257.5,9.8 256.1,10.6 253.5,12.3 C249.6,14.7 246.2,18.8 245,24.2 C244.7,25.6 244.5,26.9 244.5,28.1 C244.5,32 246.1,34.7 248.9,36.5 C251.6,38.3 255.6,39.3 260.1,39.3 C262.8,39.3 264.1,39.2 266.7,38.9 L267.7,38.8 L266.2,45.7 L265.7,45.8 C262.1,46.4 259.3,46.8 255.6,46.8 Z" id="Shape" fill="#333366" fill-rule="nonzero"></path>
            <path d="M299.8,1.9 C286.4,1.9 275.3,8.9 272.1,24.2 C269.5,36.5 277,46.6 290.3,46.6 C303.8,46.6 314.6,39.9 318,24.2 C320.6,11.4 313,1.9 299.8,1.9 M309,24.3 C306.9,35.3 300.3,40 292,40 C283.8,40 279.3,32.9 280.8,24.3 C282.8,13.5 289.6,8.7 297.8,8.7 C306,8.6 310.7,15.3 309,24.3" id="Shape" fill="#333366" fill-rule="nonzero"></path>
            <path d="M380,7.5 C380,4.9 382,2.9 384.5,2.9 C387,2.9 389,4.9 389,7.5 C389,10.2 387,12.2 384.5,12.2 C381.9,12.2 380,10.2 380,7.5 Z M379,7.5 C379,10.6 381.5,13 384.5,13 C387.5,13 390,10.6 390,7.5 C390,4.4 387.5,2.1 384.5,2.1 C381.5,2 379,4.4 379,7.5 Z M382.4,10.7 L383.4,10.7 L383.4,8 L384.5,8 L386.2,10.8 L387.3,10.8 L385.5,8 C386.5,7.9 387.2,7.4 387.2,6.3 C387.2,5.1 386.5,4.5 385,4.5 L382.5,4.5 L382.5,10.7 L382.4,10.7 Z M383.4,5.1 L384.7,5.1 C385.4,5.1 386.1,5.2 386.1,6.1 C386.1,7.1 385.3,7.2 384.4,7.2 L383.4,7.2 L383.4,5.1 Z" id="Shape" fill="#333366" fill-rule="nonzero"></path>
        </g>
    </g>
</svg>